<mxfile host="Electron" modified="2024-07-31T13:43:48.108Z" agent="Mozilla/5.0 (Macintosh; Intel Mac OS X 10_15_7) AppleWebKit/537.36 (KHTML, like Gecko) draw.io/24.6.4 Chrome/124.0.6367.207 Electron/30.0.6 Safari/537.36" etag="dmy1l0HCsKQdncz_zvoY" version="24.6.4" type="device">
  <diagram name="Page-1" id="DvGbO8EXNatS9geMlMqD">
    <mxGraphModel dx="1482" dy="779" grid="1" gridSize="10" guides="1" tooltips="1" connect="1" arrows="1" fold="1" page="1" pageScale="1" pageWidth="850" pageHeight="1100" math="0" shadow="0">
      <root>
        <mxCell id="0" />
        <mxCell id="1" parent="0" />
        <mxCell id="2eK6M1n5jC_zoFAtAAHE-6" value="AWS Cloud" style="points=[[0,0],[0.25,0],[0.5,0],[0.75,0],[1,0],[1,0.25],[1,0.5],[1,0.75],[1,1],[0.75,1],[0.5,1],[0.25,1],[0,1],[0,0.75],[0,0.5],[0,0.25]];outlineConnect=0;gradientColor=none;html=1;whiteSpace=wrap;fontSize=12;fontStyle=0;container=1;pointerEvents=0;collapsible=0;recursiveResize=0;shape=mxgraph.aws4.group;grIcon=mxgraph.aws4.group_aws_cloud_alt;strokeColor=#232F3E;fillColor=none;verticalAlign=top;align=left;spacingLeft=30;fontColor=#232F3E;dashed=0;" parent="1" vertex="1">
          <mxGeometry x="70" y="70" width="700" height="500" as="geometry" />
        </mxCell>
        <mxCell id="2eK6M1n5jC_zoFAtAAHE-10" value="" style="edgeStyle=orthogonalEdgeStyle;rounded=0;orthogonalLoop=1;jettySize=auto;html=1;" parent="2eK6M1n5jC_zoFAtAAHE-6" source="2eK6M1n5jC_zoFAtAAHE-3" edge="1">
          <mxGeometry relative="1" as="geometry">
            <mxPoint x="488" y="259" as="targetPoint" />
          </mxGeometry>
        </mxCell>
        <mxCell id="2eK6M1n5jC_zoFAtAAHE-12" value="" style="edgeStyle=orthogonalEdgeStyle;rounded=0;orthogonalLoop=1;jettySize=auto;html=1;" parent="2eK6M1n5jC_zoFAtAAHE-6" source="2eK6M1n5jC_zoFAtAAHE-3" edge="1">
          <mxGeometry relative="1" as="geometry">
            <mxPoint x="369" y="140" as="targetPoint" />
          </mxGeometry>
        </mxCell>
        <mxCell id="2eK6M1n5jC_zoFAtAAHE-19" value="" style="edgeStyle=orthogonalEdgeStyle;rounded=0;orthogonalLoop=1;jettySize=auto;html=1;" parent="2eK6M1n5jC_zoFAtAAHE-6" source="2eK6M1n5jC_zoFAtAAHE-3" target="2eK6M1n5jC_zoFAtAAHE-2" edge="1">
          <mxGeometry relative="1" as="geometry" />
        </mxCell>
        <mxCell id="2eK6M1n5jC_zoFAtAAHE-23" value="" style="edgeStyle=orthogonalEdgeStyle;rounded=0;orthogonalLoop=1;jettySize=auto;html=1;entryX=0.171;entryY=0.999;entryDx=0;entryDy=0;entryPerimeter=0;exitX=0.25;exitY=1;exitDx=0;exitDy=0;exitPerimeter=0;" parent="2eK6M1n5jC_zoFAtAAHE-6" source="2eK6M1n5jC_zoFAtAAHE-3" edge="1">
          <mxGeometry relative="1" as="geometry">
            <mxPoint x="369" y="298" as="sourcePoint" />
            <mxPoint x="57.75" y="319.8699999999999" as="targetPoint" />
            <Array as="points">
              <mxPoint x="350" y="390" />
              <mxPoint x="58" y="390" />
            </Array>
          </mxGeometry>
        </mxCell>
        <mxCell id="2eK6M1n5jC_zoFAtAAHE-3" value="" style="sketch=0;points=[[0,0,0],[0.25,0,0],[0.5,0,0],[0.75,0,0],[1,0,0],[0,1,0],[0.25,1,0],[0.5,1,0],[0.75,1,0],[1,1,0],[0,0.25,0],[0,0.5,0],[0,0.75,0],[1,0.25,0],[1,0.5,0],[1,0.75,0]];outlineConnect=0;fontColor=#232F3E;fillColor=#ED7100;strokeColor=#ffffff;dashed=0;verticalLabelPosition=bottom;verticalAlign=top;align=center;html=1;fontSize=12;fontStyle=0;aspect=fixed;shape=mxgraph.aws4.resourceIcon;resIcon=mxgraph.aws4.lambda;" parent="2eK6M1n5jC_zoFAtAAHE-6" vertex="1">
          <mxGeometry x="330" y="220" width="78" height="78" as="geometry" />
        </mxCell>
        <mxCell id="2eK6M1n5jC_zoFAtAAHE-5" value="" style="sketch=0;outlineConnect=0;fontColor=#232F3E;gradientColor=none;fillColor=#DD344C;strokeColor=none;dashed=0;verticalLabelPosition=bottom;verticalAlign=top;align=center;html=1;fontSize=12;fontStyle=0;aspect=fixed;pointerEvents=1;shape=mxgraph.aws4.role;" parent="2eK6M1n5jC_zoFAtAAHE-6" vertex="1">
          <mxGeometry x="490" y="237" width="78" height="44" as="geometry" />
        </mxCell>
        <mxCell id="2eK6M1n5jC_zoFAtAAHE-7" value="" style="sketch=0;outlineConnect=0;fontColor=#232F3E;gradientColor=none;fillColor=#DD344C;strokeColor=none;dashed=0;verticalLabelPosition=bottom;verticalAlign=top;align=center;html=1;fontSize=12;fontStyle=0;aspect=fixed;pointerEvents=1;shape=mxgraph.aws4.permissions;" parent="2eK6M1n5jC_zoFAtAAHE-6" vertex="1">
          <mxGeometry x="588" y="220" width="62" height="78" as="geometry" />
        </mxCell>
        <mxCell id="2eK6M1n5jC_zoFAtAAHE-4" value="" style="sketch=0;points=[[0,0,0],[0.25,0,0],[0.5,0,0],[0.75,0,0],[1,0,0],[0,1,0],[0.25,1,0],[0.5,1,0],[0.75,1,0],[1,1,0],[0,0.25,0],[0,0.5,0],[0,0.75,0],[1,0.25,0],[1,0.5,0],[1,0.75,0]];points=[[0,0,0],[0.25,0,0],[0.5,0,0],[0.75,0,0],[1,0,0],[0,1,0],[0.25,1,0],[0.5,1,0],[0.75,1,0],[1,1,0],[0,0.25,0],[0,0.5,0],[0,0.75,0],[1,0.25,0],[1,0.5,0],[1,0.75,0]];outlineConnect=0;fontColor=#232F3E;fillColor=#E7157B;strokeColor=#ffffff;dashed=0;verticalLabelPosition=bottom;verticalAlign=top;align=center;html=1;fontSize=12;fontStyle=0;aspect=fixed;shape=mxgraph.aws4.resourceIcon;resIcon=mxgraph.aws4.cloudwatch_2;" parent="2eK6M1n5jC_zoFAtAAHE-6" vertex="1">
          <mxGeometry x="330" y="60" width="78" height="78" as="geometry" />
        </mxCell>
        <mxCell id="2eK6M1n5jC_zoFAtAAHE-14" value="" style="group" parent="2eK6M1n5jC_zoFAtAAHE-6" vertex="1" connectable="0">
          <mxGeometry x="10" y="190" width="250" height="130" as="geometry" />
        </mxCell>
        <mxCell id="2eK6M1n5jC_zoFAtAAHE-8" value="Secret Manager and KMS" style="fillColor=none;strokeColor=#5A6C86;dashed=1;verticalAlign=top;fontStyle=0;fontColor=#5A6C86;whiteSpace=wrap;html=1;" parent="2eK6M1n5jC_zoFAtAAHE-14" vertex="1">
          <mxGeometry width="250" height="130" as="geometry" />
        </mxCell>
        <mxCell id="2eK6M1n5jC_zoFAtAAHE-1" value="KMS CMK" style="sketch=0;points=[[0,0,0],[0.25,0,0],[0.5,0,0],[0.75,0,0],[1,0,0],[0,1,0],[0.25,1,0],[0.5,1,0],[0.75,1,0],[1,1,0],[0,0.25,0],[0,0.5,0],[0,0.75,0],[1,0.25,0],[1,0.5,0],[1,0.75,0]];outlineConnect=0;fontColor=#232F3E;fillColor=#DD344C;strokeColor=#ffffff;dashed=0;verticalLabelPosition=bottom;verticalAlign=top;align=center;html=1;fontSize=12;fontStyle=0;aspect=fixed;shape=mxgraph.aws4.resourceIcon;resIcon=mxgraph.aws4.key_management_service;" parent="2eK6M1n5jC_zoFAtAAHE-14" vertex="1">
          <mxGeometry x="10" y="30" width="78" height="78" as="geometry" />
        </mxCell>
        <mxCell id="2eK6M1n5jC_zoFAtAAHE-18" value="" style="edgeStyle=orthogonalEdgeStyle;rounded=0;orthogonalLoop=1;jettySize=auto;html=1;" parent="2eK6M1n5jC_zoFAtAAHE-14" edge="1">
          <mxGeometry relative="1" as="geometry">
            <mxPoint x="150" y="68.85" as="sourcePoint" />
            <mxPoint x="88" y="68.85" as="targetPoint" />
          </mxGeometry>
        </mxCell>
        <mxCell id="2eK6M1n5jC_zoFAtAAHE-2" value="Secret Manager" style="sketch=0;points=[[0,0,0],[0.25,0,0],[0.5,0,0],[0.75,0,0],[1,0,0],[0,1,0],[0.25,1,0],[0.5,1,0],[0.75,1,0],[1,1,0],[0,0.25,0],[0,0.5,0],[0,0.75,0],[1,0.25,0],[1,0.5,0],[1,0.75,0]];outlineConnect=0;fontColor=#232F3E;fillColor=#DD344C;strokeColor=#ffffff;dashed=0;verticalLabelPosition=bottom;verticalAlign=top;align=center;html=1;fontSize=12;fontStyle=0;aspect=fixed;shape=mxgraph.aws4.resourceIcon;resIcon=mxgraph.aws4.secrets_manager;" parent="2eK6M1n5jC_zoFAtAAHE-14" vertex="1">
          <mxGeometry x="150" y="30" width="78" height="78" as="geometry" />
        </mxCell>
        <mxCell id="2eK6M1n5jC_zoFAtAAHE-15" value="Role" style="text;strokeColor=none;align=center;fillColor=none;html=1;verticalAlign=middle;whiteSpace=wrap;rounded=0;" parent="2eK6M1n5jC_zoFAtAAHE-6" vertex="1">
          <mxGeometry x="500" y="298" width="60" height="30" as="geometry" />
        </mxCell>
        <mxCell id="2eK6M1n5jC_zoFAtAAHE-16" value="Policy" style="text;strokeColor=none;align=center;fillColor=none;html=1;verticalAlign=middle;whiteSpace=wrap;rounded=0;" parent="2eK6M1n5jC_zoFAtAAHE-6" vertex="1">
          <mxGeometry x="588" y="300" width="60" height="30" as="geometry" />
        </mxCell>
        <mxCell id="2eK6M1n5jC_zoFAtAAHE-17" value="CloudWatch" style="text;strokeColor=none;align=center;fillColor=none;html=1;verticalAlign=middle;whiteSpace=wrap;rounded=0;" parent="2eK6M1n5jC_zoFAtAAHE-6" vertex="1">
          <mxGeometry x="430" y="84" width="60" height="30" as="geometry" />
        </mxCell>
        <mxCell id="2eK6M1n5jC_zoFAtAAHE-20" value="" style="edgeStyle=orthogonalEdgeStyle;rounded=0;orthogonalLoop=1;jettySize=auto;html=1;" parent="2eK6M1n5jC_zoFAtAAHE-6" source="2eK6M1n5jC_zoFAtAAHE-2" target="2eK6M1n5jC_zoFAtAAHE-3" edge="1">
          <mxGeometry relative="1" as="geometry" />
        </mxCell>
        <mxCell id="ZRoFc628KWNNwrovzNNM-3" value="" style="edgeStyle=orthogonalEdgeStyle;rounded=0;orthogonalLoop=1;jettySize=auto;html=1;entryX=0;entryY=0.5;entryDx=0;entryDy=0;entryPerimeter=0;" edge="1" parent="2eK6M1n5jC_zoFAtAAHE-6" source="2eK6M1n5jC_zoFAtAAHE-24" target="ZRoFc628KWNNwrovzNNM-1">
          <mxGeometry relative="1" as="geometry">
            <mxPoint x="382" y="399" as="targetPoint" />
          </mxGeometry>
        </mxCell>
        <mxCell id="2eK6M1n5jC_zoFAtAAHE-24" value="Rotation Lambda" style="text;strokeColor=none;align=center;fillColor=none;html=1;verticalAlign=middle;whiteSpace=wrap;rounded=0;" parent="2eK6M1n5jC_zoFAtAAHE-6" vertex="1">
          <mxGeometry x="352" y="304" width="60" height="30" as="geometry" />
        </mxCell>
        <mxCell id="ZRoFc628KWNNwrovzNNM-1" value="SNS Topic" style="sketch=0;points=[[0,0,0],[0.25,0,0],[0.5,0,0],[0.75,0,0],[1,0,0],[0,1,0],[0.25,1,0],[0.5,1,0],[0.75,1,0],[1,1,0],[0,0.25,0],[0,0.5,0],[0,0.75,0],[1,0.25,0],[1,0.5,0],[1,0.75,0]];outlineConnect=0;fontColor=#232F3E;fillColor=#E7157B;strokeColor=#ffffff;dashed=0;verticalLabelPosition=bottom;verticalAlign=top;align=center;html=1;fontSize=12;fontStyle=0;aspect=fixed;shape=mxgraph.aws4.resourceIcon;resIcon=mxgraph.aws4.sns;" vertex="1" parent="2eK6M1n5jC_zoFAtAAHE-6">
          <mxGeometry x="491" y="360" width="78" height="78" as="geometry" />
        </mxCell>
        <mxCell id="2eK6M1n5jC_zoFAtAAHE-21" value="" style="edgeStyle=orthogonalEdgeStyle;rounded=0;orthogonalLoop=1;jettySize=auto;html=1;" parent="1" edge="1">
          <mxGeometry relative="1" as="geometry">
            <mxPoint x="171" y="329" as="sourcePoint" />
            <mxPoint x="231" y="329" as="targetPoint" />
          </mxGeometry>
        </mxCell>
      </root>
    </mxGraphModel>
  </diagram>
</mxfile>
